<svg id="Layer_2" data-name="Layer 2" xmlns="http://www.w3.org/2000/svg" viewBox="0 0 257.33 257.33"><defs><style>.cls-1{fill:#3a98d4;}.cls-2{fill:#277aaf;}.cls-3{fill:#fff;}.cls-4{fill:#f36e27;}</style></defs><title>icon</title><circle class="cls-1" cx="128.66" cy="128.66" r="128.66"/><path class="cls-2" d="M257.31,127.91l-78-64.12-75.21,91.5-8.81-8.81-1.83,1.84L85.14,140l.5-.49,4.5,4.5,17-17L95.29,115.15,93.46,117l-4.75-4.75,15.76-15.76L92.63,84.62l-1.84,1.84L82,77.64l-8.64,8.64,1.8,1.79-1.8,1.8,7,7L77.28,100l-4.5-4.5-6.15,6.16,11.84,11.84L83,109l.43.43L76,116.8l.06.06-2.93,2.94,8.76,8.76L80,130.5l-4.5-4.5-6.16,6.15L80.64,143.5,76,148.14l.06.06-2.93,2.93,8.76,8.76L80,161.83l-4.5-4.5-6.16,6.16,11.85,11.84,4.5-4.5L88.76,174l-12.08,14.7,79.95,65.72a128.71,128.71,0,0,0,100.7-125.61C257.33,128.48,257.32,128.2,257.31,127.91Z"/><rect class="cls-3" x="64.92" y="155.66" width="28.12" height="7.08" rx="3.54"/><rect class="cls-3" x="64.92" y="126.08" width="28.12" height="7.08" rx="3.54"/><rect class="cls-3" x="64.92" y="94.58" width="28.12" height="7.08" rx="3.54"/><path class="cls-4" d="M171.06,58.5H93.61A20.34,20.34,0,0,0,73.33,78.77V89.5H89.08A7.94,7.94,0,0,1,97,97.42v1.76a7.94,7.94,0,0,1-7.92,7.91H73.33v13.73H89.08A7.94,7.94,0,0,1,97,128.74v1.76a7.94,7.94,0,0,1-7.92,7.92H73.33v12H89.08A7.94,7.94,0,0,1,97,158.32v1.76A7.94,7.94,0,0,1,89.08,168H73.33v10.55a20.34,20.34,0,0,0,20.28,20.28h77.45a20.33,20.33,0,0,0,20.27-20.28V78.77A20.33,20.33,0,0,0,171.06,58.5Z"/></svg>